<svg width="207" height="54" viewBox="0 0 207 54" fill="none" xmlns="http://www.w3.org/2000/svg">
<path d="M1.05 6.65H4.175V20H1.05V6.65ZM2.625 4.45C2.05833 4.45 1.58333 4.275 1.2 3.925C0.816667 3.55833 0.625 3.10833 0.625 2.575C0.625 2.04167 0.816667 1.6 1.2 1.25C1.58333 0.883333 2.05833 0.7 2.625 0.7C3.19167 0.7 3.66667 0.874999 4.05 1.225C4.43333 1.55833 4.625 1.98333 4.625 2.5C4.625 3.05 4.43333 3.51667 4.05 3.9C3.68333 4.26667 3.20833 4.45 2.625 4.45ZM15.8516 6.5C17.5349 6.5 18.8849 6.99167 19.9016 7.975C20.9182 8.95833 21.4266 10.4167 21.4266 12.35V20H18.3016V12.75C18.3016 11.5833 18.0266 10.7083 17.4766 10.125C16.9266 9.525 16.1432 9.225 15.1266 9.225C13.9766 9.225 13.0682 9.575 12.4016 10.275C11.7349 10.9583 11.4016 11.95 11.4016 13.25V20H8.27656V6.65H11.2516V8.375C11.7682 7.75833 12.4182 7.29167 13.2016 6.975C13.9849 6.65833 14.8682 6.5 15.8516 6.5ZM31.6379 20.175C30.2546 20.175 29.0129 19.8833 27.9129 19.3C26.8129 18.7167 25.9546 17.9083 25.3379 16.875C24.7212 15.825 24.4129 14.6417 24.4129 13.325C24.4129 12.0083 24.7212 10.8333 25.3379 9.8C25.9546 8.76667 26.8046 7.95833 27.8879 7.375C28.9879 6.79167 30.2379 6.5 31.6379 6.5C32.9546 6.5 34.1046 6.76667 35.0879 7.3C36.0879 7.83333 36.8379 8.6 37.3379 9.6L34.9379 11C34.5546 10.3833 34.0712 9.925 33.4879 9.625C32.9212 9.30833 32.2962 9.15 31.6129 9.15C30.4462 9.15 29.4796 9.53333 28.7129 10.3C27.9462 11.05 27.5629 12.0583 27.5629 13.325C27.5629 14.5917 27.9379 15.6083 28.6879 16.375C29.4546 17.125 30.4296 17.5 31.6129 17.5C32.2962 17.5 32.9212 17.35 33.4879 17.05C34.0712 16.7333 34.5546 16.2667 34.9379 15.65L37.3379 17.05C36.8212 18.05 36.0629 18.825 35.0629 19.375C34.0796 19.9083 32.9379 20.175 31.6379 20.175ZM43.0143 8.6C43.9143 7.2 45.4976 6.5 47.7643 6.5V9.475C47.4976 9.425 47.2559 9.4 47.0393 9.4C45.8226 9.4 44.8726 9.75833 44.1893 10.475C43.5059 11.175 43.1643 12.1917 43.1643 13.525V20H40.0393V6.65H43.0143V8.6ZM50.4152 6.65H53.5402V20H50.4152V6.65ZM51.9902 4.45C51.4236 4.45 50.9486 4.275 50.5652 3.925C50.1819 3.55833 49.9902 3.10833 49.9902 2.575C49.9902 2.04167 50.1819 1.6 50.5652 1.25C50.9486 0.883333 51.4236 0.7 51.9902 0.7C52.5569 0.7 53.0319 0.874999 53.4152 1.225C53.7986 1.55833 53.9902 1.98333 53.9902 2.5C53.9902 3.05 53.7986 3.51667 53.4152 3.9C53.0486 4.26667 52.5736 4.45 51.9902 4.45ZM66.1418 20L62.7168 15.375L59.2668 20H55.8168L61.0168 13.225L56.0418 6.65H59.5168L62.7918 11.025L66.0668 6.65H69.4418L64.4418 13.175L69.6668 20H66.1418Z" fill="black"/>
<path d="M23.76 48.64V53H2.76V25H23.2V29.36H7.96V36.64H21.48V40.92H7.96V48.64H23.76ZM49.8016 23.32V53H45.0016V50.24C44.1749 51.2533 43.1482 52.0133 41.9216 52.52C40.7216 53.0267 39.3882 53.28 37.9216 53.28C35.8682 53.28 34.0149 52.8267 32.3616 51.92C30.7349 51.0133 29.4549 49.7333 28.5216 48.08C27.5882 46.4 27.1216 44.48 27.1216 42.32C27.1216 40.16 27.5882 38.2533 28.5216 36.6C29.4549 34.9467 30.7349 33.6667 32.3616 32.76C34.0149 31.8533 35.8682 31.4 37.9216 31.4C39.3349 31.4 40.6282 31.64 41.8016 32.12C42.9749 32.6 43.9749 33.32 44.8016 34.28V23.32H49.8016ZM38.5216 49C39.7216 49 40.8016 48.7333 41.7616 48.2C42.7216 47.64 43.4816 46.8533 44.0416 45.84C44.6016 44.8267 44.8816 43.6533 44.8816 42.32C44.8816 40.9867 44.6016 39.8133 44.0416 38.8C43.4816 37.7867 42.7216 37.0133 41.7616 36.48C40.8016 35.92 39.7216 35.64 38.5216 35.64C37.3216 35.64 36.2416 35.92 35.2816 36.48C34.3216 37.0133 33.5616 37.7867 33.0016 38.8C32.4416 39.8133 32.1616 40.9867 32.1616 42.32C32.1616 43.6533 32.4416 44.8267 33.0016 45.84C33.5616 46.8533 34.3216 47.64 35.2816 48.2C36.2416 48.7333 37.3216 49 38.5216 49ZM77.0225 31.64V53H72.2625V50.28C71.4625 51.24 70.4625 51.9867 69.2625 52.52C68.0625 53.0267 66.7692 53.28 65.3825 53.28C62.5292 53.28 60.2758 52.4933 58.6225 50.92C56.9958 49.32 56.1825 46.96 56.1825 43.84V31.64H61.1825V43.16C61.1825 45.08 61.6092 46.52 62.4625 47.48C63.3425 48.4133 64.5825 48.88 66.1825 48.88C67.9692 48.88 69.3825 48.3333 70.4225 47.24C71.4892 46.12 72.0225 44.52 72.0225 42.44V31.64H77.0225ZM93.3691 53.28C91.1557 53.28 89.1691 52.8133 87.4091 51.88C85.6491 50.9467 84.2757 49.6533 83.2891 48C82.3024 46.32 81.8091 44.4267 81.8091 42.32C81.8091 40.2133 82.3024 38.3333 83.2891 36.68C84.2757 35.0267 85.6357 33.7333 87.3691 32.8C89.1291 31.8667 91.1291 31.4 93.3691 31.4C95.4757 31.4 97.3157 31.8267 98.8891 32.68C100.489 33.5333 101.689 34.76 102.489 36.36L98.6491 38.6C98.0357 37.6133 97.2624 36.88 96.3291 36.4C95.4224 35.8933 94.4224 35.64 93.3291 35.64C91.4624 35.64 89.9157 36.2533 88.6891 37.48C87.4624 38.68 86.8491 40.2933 86.8491 42.32C86.8491 44.3467 87.4491 45.9733 88.6491 47.2C89.8757 48.4 91.4357 49 93.3291 49C94.4224 49 95.4224 48.76 96.3291 48.28C97.2624 47.7733 98.0357 47.0267 98.6491 46.04L102.489 48.28C101.662 49.88 100.449 51.12 98.8491 52C97.2757 52.8533 95.4491 53.28 93.3691 53.28ZM114.971 31.4C118.118 31.4 120.518 32.16 122.171 33.68C123.851 35.1733 124.691 37.44 124.691 40.48V53H119.971V50.4C119.358 51.3333 118.478 52.0533 117.331 52.56C116.211 53.04 114.851 53.28 113.251 53.28C111.651 53.28 110.251 53.0133 109.051 52.48C107.851 51.92 106.918 51.16 106.251 50.2C105.611 49.2133 105.291 48.1067 105.291 46.88C105.291 44.96 105.998 43.4267 107.411 42.28C108.851 41.1067 111.105 40.52 114.171 40.52H119.691V40.2C119.691 38.7067 119.238 37.56 118.331 36.76C117.451 35.96 116.131 35.56 114.371 35.56C113.171 35.56 111.985 35.7467 110.811 36.12C109.665 36.4933 108.691 37.0133 107.891 37.68L105.931 34.04C107.051 33.1867 108.398 32.5333 109.971 32.08C111.545 31.6267 113.211 31.4 114.971 31.4ZM114.291 49.64C115.545 49.64 116.651 49.36 117.611 48.8C118.598 48.2133 119.291 47.3867 119.691 46.32V43.84H114.531C111.651 43.84 110.211 44.7867 110.211 46.68C110.211 47.5867 110.571 48.3067 111.291 48.84C112.011 49.3733 113.011 49.64 114.291 49.64ZM143.948 51.84C143.361 52.32 142.641 52.68 141.788 52.92C140.961 53.16 140.081 53.28 139.148 53.28C136.801 53.28 134.988 52.6667 133.708 51.44C132.428 50.2133 131.788 48.4267 131.788 46.08V35.8H128.268V31.8H131.788V26.92H136.788V31.8H142.508V35.8H136.788V45.96C136.788 47 137.041 47.8 137.548 48.36C138.055 48.8933 138.788 49.16 139.748 49.16C140.868 49.16 141.801 48.8667 142.548 48.28L143.948 51.84ZM148.061 31.64H153.061V53H148.061V31.64ZM150.581 28.12C149.675 28.12 148.915 27.84 148.301 27.28C147.688 26.6933 147.381 25.9733 147.381 25.12C147.381 24.2667 147.688 23.56 148.301 23C148.915 22.4133 149.675 22.12 150.581 22.12C151.488 22.12 152.248 22.4 152.861 22.96C153.475 23.4933 153.781 24.1733 153.781 25C153.781 25.88 153.475 26.6267 152.861 27.24C152.275 27.8267 151.515 28.12 150.581 28.12ZM169.224 53.28C167.064 53.28 165.117 52.8133 163.384 51.88C161.65 50.9467 160.29 49.6533 159.304 48C158.344 46.32 157.864 44.4267 157.864 42.32C157.864 40.2133 158.344 38.3333 159.304 36.68C160.29 35.0267 161.65 33.7333 163.384 32.8C165.117 31.8667 167.064 31.4 169.224 31.4C171.41 31.4 173.37 31.8667 175.104 32.8C176.837 33.7333 178.184 35.0267 179.144 36.68C180.13 38.3333 180.624 40.2133 180.624 42.32C180.624 44.4267 180.13 46.32 179.144 48C178.184 49.6533 176.837 50.9467 175.104 51.88C173.37 52.8133 171.41 53.28 169.224 53.28ZM169.224 49C171.064 49 172.584 48.3867 173.784 47.16C174.984 45.9333 175.584 44.32 175.584 42.32C175.584 40.32 174.984 38.7067 173.784 37.48C172.584 36.2533 171.064 35.64 169.224 35.64C167.384 35.64 165.864 36.2533 164.664 37.48C163.49 38.7067 162.904 40.32 162.904 42.32C162.904 44.32 163.49 45.9333 164.664 47.16C165.864 48.3867 167.384 49 169.224 49ZM197.525 31.4C200.218 31.4 202.378 32.1867 204.005 33.76C205.632 35.3333 206.445 37.6667 206.445 40.76V53H201.445V41.4C201.445 39.5333 201.005 38.1333 200.125 37.2C199.245 36.24 197.992 35.76 196.365 35.76C194.525 35.76 193.072 36.32 192.005 37.44C190.938 38.5333 190.405 40.12 190.405 42.2V53H185.405V31.64H190.165V34.4C190.992 33.4133 192.032 32.6667 193.285 32.16C194.538 31.6533 195.952 31.4 197.525 31.4Z" fill="#3362CC"/>
</svg>
